<?xml version="1.0" encoding="UTF-8" standalone="no"?>
<!DOCTYPE svg PUBLIC "-//W3C//DTD SVG 1.1//EN" "http://www.w3.org/Graphics/SVG/1.1/DTD/svg11.dtd">
<svg width="100%" height="100%" viewBox="0 0 995 221" version="1.1" xmlns="http://www.w3.org/2000/svg" xmlns:xlink="http://www.w3.org/1999/xlink" xml:space="preserve" xmlns:serif="http://www.serif.com/" style="fill-rule:evenodd;clip-rule:evenodd;stroke-linejoin:round;stroke-miterlimit:2;">
    <g transform="matrix(1,0,0,1,-2088.35,-1933.84)">
        <g transform="matrix(1,0,0,2.41149,4270,-675.217)">
            <g transform="matrix(2.01365,0,0,0.835025,-1684.28,1149.24)">
                <clipPath id="_clip1">
                    <rect x="-247" y="-80.605" width="494" height="109.563"/>
                </clipPath>
                <g clip-path="url(#_clip1)">
                    <g transform="matrix(1,0,0,1,-247,-96)">
                        <g transform="matrix(0.397803,0,0,0.397803,913.51,-551.06)">
                            <g>
                                <g>
                                    <g>
                                        <g transform="matrix(0.435039,0,0,0.435039,-2110.25,1087.95)">
                                            <g transform="matrix(251.288,0,0,251.288,-171.926,957)">
                                                <path d="M0.747,-0.7L0.747,0L0.511,0L0.511,-0.258L0.293,-0.258L0.293,0L0.057,0L0.057,-0.7L0.293,-0.7L0.293,-0.452L0.511,-0.452L0.511,-0.7L0.747,-0.7Z" style="fill:rgb(255,152,0);fill-rule:nonzero;"/>
                                            </g>
                                            <g transform="matrix(251.288,0,0,251.288,30.1099,957)">
                                                <path d="M0.682,0L0.68,-0.319L0.528,-0.063L0.424,-0.063L0.272,-0.308L0.272,0L0.057,0L0.057,-0.7L0.251,-0.7L0.479,-0.327L0.701,-0.7L0.895,-0.7L0.897,0L0.682,0Z" style="fill:rgb(255,152,0);fill-rule:nonzero;"/>
                                            </g>
                                            <g transform="matrix(251.288,0,0,251.288,269.839,957)">
                                                <rect x="0.057" y="-0.7" width="0.236" height="0.7" style="fill:rgb(255,152,0);"/>
                                            </g>
                                            <g transform="matrix(251.288,0,0,251.288,357.79,957)">
                                                <path d="M0.293,-0.522L0.293,-0.402L0.585,-0.402L0.585,-0.224L0.293,-0.224L0.293,0L0.057,0L0.057,-0.7L0.626,-0.7L0.626,-0.522L0.293,-0.522Z" style="fill:rgb(255,152,0);fill-rule:nonzero;"/>
                                            </g>
                                            <g transform="matrix(251.288,0,0,251.288,595.006,957)">
                                                <rect x="0.057" y="-0.7" width="0.236" height="0.7"/>
                                            </g>
                                            <g transform="matrix(251.288,0,0,251.288,682.957,957)">
                                                <path d="M0.209,-0.517L0.004,-0.517L0.004,-0.7L0.65,-0.7L0.65,-0.517L0.445,-0.517L0.445,0L0.209,0L0.209,-0.517Z" style="fill-rule:nonzero;"/>
                                            </g>
                                            <g transform="matrix(251.288,0,0,251.288,847.3,957)">
                                                <path d="M0.617,-0.366C0.658,-0.351 0.69,-0.328 0.713,-0.299C0.736,-0.27 0.747,-0.234 0.747,-0.193C0.747,-0.132 0.722,-0.084 0.671,-0.051C0.62,-0.017 0.547,0 0.451,0L0.057,0L0.057,-0.7L0.431,-0.7C0.524,-0.7 0.595,-0.683 0.643,-0.65C0.69,-0.617 0.714,-0.572 0.714,-0.517C0.714,-0.484 0.706,-0.455 0.69,-0.429C0.673,-0.403 0.649,-0.382 0.617,-0.366ZM0.289,-0.535L0.289,-0.431L0.399,-0.431C0.45,-0.431 0.476,-0.448 0.476,-0.483C0.476,-0.518 0.45,-0.535 0.399,-0.535L0.289,-0.535ZM0.431,-0.165C0.483,-0.165 0.509,-0.183 0.509,-0.22C0.509,-0.257 0.483,-0.275 0.431,-0.275L0.289,-0.275L0.289,-0.165L0.431,-0.165Z" style="fill-rule:nonzero;"/>
                                            </g>
                                        </g>
                                        <g transform="matrix(1,0,0,1,-91.771,824.034)">
                                            <g transform="matrix(0.82819,0,0,0.82819,-2506.33,80.2005)">
                                                <g>
                                                    <g transform="matrix(251.288,0,0,251.288,350,957)">
                                                        <path d="M0.617,-0.366C0.658,-0.351 0.69,-0.328 0.713,-0.299C0.736,-0.27 0.747,-0.234 0.747,-0.193C0.747,-0.132 0.722,-0.084 0.671,-0.051C0.62,-0.017 0.547,0 0.451,0L0.057,0L0.057,-0.7L0.431,-0.7C0.524,-0.7 0.595,-0.683 0.643,-0.65C0.69,-0.617 0.714,-0.572 0.714,-0.517C0.714,-0.484 0.706,-0.455 0.69,-0.429C0.673,-0.403 0.649,-0.382 0.617,-0.366ZM0.289,-0.535L0.289,-0.431L0.399,-0.431C0.45,-0.431 0.476,-0.448 0.476,-0.483C0.476,-0.518 0.45,-0.535 0.399,-0.535L0.289,-0.535ZM0.431,-0.165C0.483,-0.165 0.509,-0.183 0.509,-0.22C0.509,-0.257 0.483,-0.275 0.431,-0.275L0.289,-0.275L0.289,-0.165L0.431,-0.165Z" style="fill-rule:nonzero;"/>
                                                    </g>
                                                    <g transform="matrix(251.288,0,0,251.288,544.246,957)">
                                                        <path d="M0.424,0.016C0.349,0.016 0.281,0 0.221,-0.031C0.161,-0.062 0.114,-0.106 0.08,-0.162C0.046,-0.217 0.029,-0.28 0.029,-0.35C0.029,-0.42 0.046,-0.483 0.08,-0.539C0.114,-0.594 0.161,-0.638 0.221,-0.669C0.281,-0.7 0.349,-0.716 0.424,-0.716C0.499,-0.716 0.567,-0.7 0.627,-0.669C0.687,-0.638 0.734,-0.594 0.768,-0.539C0.802,-0.483 0.819,-0.42 0.819,-0.35C0.819,-0.28 0.802,-0.217 0.768,-0.162C0.734,-0.106 0.687,-0.062 0.627,-0.031C0.567,0 0.499,0.016 0.424,0.016ZM0.424,-0.175C0.453,-0.175 0.48,-0.182 0.504,-0.197C0.527,-0.211 0.546,-0.231 0.56,-0.258C0.574,-0.284 0.581,-0.315 0.581,-0.35C0.581,-0.385 0.574,-0.416 0.56,-0.443C0.546,-0.469 0.527,-0.489 0.504,-0.504C0.48,-0.518 0.453,-0.525 0.424,-0.525C0.395,-0.525 0.368,-0.518 0.345,-0.504C0.321,-0.489 0.302,-0.469 0.288,-0.443C0.274,-0.416 0.267,-0.385 0.267,-0.35C0.267,-0.315 0.274,-0.284 0.288,-0.258C0.302,-0.231 0.321,-0.211 0.345,-0.197C0.368,-0.182 0.395,-0.175 0.424,-0.175Z" style="fill-rule:nonzero;"/>
                                                    </g>
                                                    <g transform="matrix(251.288,0,0,251.288,757.338,957)">
                                                        <path d="M0.424,0.016C0.349,0.016 0.281,0 0.221,-0.031C0.161,-0.062 0.114,-0.106 0.08,-0.162C0.046,-0.217 0.029,-0.28 0.029,-0.35C0.029,-0.42 0.046,-0.483 0.08,-0.539C0.114,-0.594 0.161,-0.638 0.221,-0.669C0.281,-0.7 0.349,-0.716 0.424,-0.716C0.499,-0.716 0.567,-0.7 0.627,-0.669C0.687,-0.638 0.734,-0.594 0.768,-0.539C0.802,-0.483 0.819,-0.42 0.819,-0.35C0.819,-0.28 0.802,-0.217 0.768,-0.162C0.734,-0.106 0.687,-0.062 0.627,-0.031C0.567,0 0.499,0.016 0.424,0.016ZM0.424,-0.175C0.453,-0.175 0.48,-0.182 0.504,-0.197C0.527,-0.211 0.546,-0.231 0.56,-0.258C0.574,-0.284 0.581,-0.315 0.581,-0.35C0.581,-0.385 0.574,-0.416 0.56,-0.443C0.546,-0.469 0.527,-0.489 0.504,-0.504C0.48,-0.518 0.453,-0.525 0.424,-0.525C0.395,-0.525 0.368,-0.518 0.345,-0.504C0.321,-0.489 0.302,-0.469 0.288,-0.443C0.274,-0.416 0.267,-0.385 0.267,-0.35C0.267,-0.315 0.274,-0.284 0.288,-0.258C0.302,-0.231 0.321,-0.211 0.345,-0.197C0.368,-0.182 0.395,-0.175 0.424,-0.175Z" style="fill-rule:nonzero;"/>
                                                    </g>
                                                    <g transform="matrix(251.288,0,0,251.288,967.918,957)">
                                                        <path d="M0.209,-0.517L0.004,-0.517L0.004,-0.7L0.65,-0.7L0.65,-0.517L0.445,-0.517L0.445,0L0.209,0L0.209,-0.517Z" style="fill-rule:nonzero;"/>
                                                    </g>
                                                </g>
                                            </g>
                                            <g transform="matrix(0.5,-0.866025,0.866025,0.5,-2843.66,952.883)">
                                                <rect x="564" y="779" width="338" height="234" style="fill:none;"/>
                                                <g transform="matrix(0.414095,0.717234,-0.717234,0.414095,924.426,-144.212)">
                                                    <g>
                                                        <g transform="matrix(251.288,0,0,251.288,350,957)">
                                                            <path d="M0.617,-0.366C0.658,-0.351 0.69,-0.328 0.713,-0.299C0.736,-0.27 0.747,-0.234 0.747,-0.193C0.747,-0.132 0.722,-0.084 0.671,-0.051C0.62,-0.017 0.547,0 0.451,0L0.057,0L0.057,-0.7L0.431,-0.7C0.524,-0.7 0.595,-0.683 0.643,-0.65C0.69,-0.617 0.714,-0.572 0.714,-0.517C0.714,-0.484 0.706,-0.455 0.69,-0.429C0.673,-0.403 0.649,-0.382 0.617,-0.366ZM0.289,-0.535L0.289,-0.431L0.399,-0.431C0.45,-0.431 0.476,-0.448 0.476,-0.483C0.476,-0.518 0.45,-0.535 0.399,-0.535L0.289,-0.535ZM0.431,-0.165C0.483,-0.165 0.509,-0.183 0.509,-0.22C0.509,-0.257 0.483,-0.275 0.431,-0.275L0.289,-0.275L0.289,-0.165L0.431,-0.165Z" style="fill-rule:nonzero;"/>
                                                        </g>
                                                        <g transform="matrix(251.288,0,0,251.288,544.246,957)">
                                                            <path d="M0.424,0.016C0.349,0.016 0.281,0 0.221,-0.031C0.161,-0.062 0.114,-0.106 0.08,-0.162C0.046,-0.217 0.029,-0.28 0.029,-0.35C0.029,-0.42 0.046,-0.483 0.08,-0.539C0.114,-0.594 0.161,-0.638 0.221,-0.669C0.281,-0.7 0.349,-0.716 0.424,-0.716C0.499,-0.716 0.567,-0.7 0.627,-0.669C0.687,-0.638 0.734,-0.594 0.768,-0.539C0.802,-0.483 0.819,-0.42 0.819,-0.35C0.819,-0.28 0.802,-0.217 0.768,-0.162C0.734,-0.106 0.687,-0.062 0.627,-0.031C0.567,0 0.499,0.016 0.424,0.016ZM0.424,-0.175C0.453,-0.175 0.48,-0.182 0.504,-0.197C0.527,-0.211 0.546,-0.231 0.56,-0.258C0.574,-0.284 0.581,-0.315 0.581,-0.35C0.581,-0.385 0.574,-0.416 0.56,-0.443C0.546,-0.469 0.527,-0.489 0.504,-0.504C0.48,-0.518 0.453,-0.525 0.424,-0.525C0.395,-0.525 0.368,-0.518 0.345,-0.504C0.321,-0.489 0.302,-0.469 0.288,-0.443C0.274,-0.416 0.267,-0.385 0.267,-0.35C0.267,-0.315 0.274,-0.284 0.288,-0.258C0.302,-0.231 0.321,-0.211 0.345,-0.197C0.368,-0.182 0.395,-0.175 0.424,-0.175Z" style="fill-rule:nonzero;"/>
                                                        </g>
                                                        <g transform="matrix(251.288,0,0,251.288,757.338,957)">
                                                            <path d="M0.424,0.016C0.349,0.016 0.281,0 0.221,-0.031C0.161,-0.062 0.114,-0.106 0.08,-0.162C0.046,-0.217 0.029,-0.28 0.029,-0.35C0.029,-0.42 0.046,-0.483 0.08,-0.539C0.114,-0.594 0.161,-0.638 0.221,-0.669C0.281,-0.7 0.349,-0.716 0.424,-0.716C0.499,-0.716 0.567,-0.7 0.627,-0.669C0.687,-0.638 0.734,-0.594 0.768,-0.539C0.802,-0.483 0.819,-0.42 0.819,-0.35C0.819,-0.28 0.802,-0.217 0.768,-0.162C0.734,-0.106 0.687,-0.062 0.627,-0.031C0.567,0 0.499,0.016 0.424,0.016ZM0.424,-0.175C0.453,-0.175 0.48,-0.182 0.504,-0.197C0.527,-0.211 0.546,-0.231 0.56,-0.258C0.574,-0.284 0.581,-0.315 0.581,-0.35C0.581,-0.385 0.574,-0.416 0.56,-0.443C0.546,-0.469 0.527,-0.489 0.504,-0.504C0.48,-0.518 0.453,-0.525 0.424,-0.525C0.395,-0.525 0.368,-0.518 0.345,-0.504C0.321,-0.489 0.302,-0.469 0.288,-0.443C0.274,-0.416 0.267,-0.385 0.267,-0.35C0.267,-0.315 0.274,-0.284 0.288,-0.258C0.302,-0.231 0.321,-0.211 0.345,-0.197C0.368,-0.182 0.395,-0.175 0.424,-0.175Z" style="fill-rule:nonzero;"/>
                                                        </g>
                                                        <g transform="matrix(251.288,0,0,251.288,967.918,957)">
                                                            <path d="M0.209,-0.517L0.004,-0.517L0.004,-0.7L0.65,-0.7L0.65,-0.517L0.445,-0.517L0.445,0L0.209,0L0.209,-0.517Z" style="fill-rule:nonzero;"/>
                                                        </g>
                                                    </g>
                                                </g>
                                            </g>
                                        </g>
                                        <g transform="matrix(1,0,0,1,-6,-73)">
                                            <g transform="matrix(0.5,-0.866025,0.866025,0.5,-2699.43,1920.94)">
                                                <rect x="564" y="779" width="338" height="234" style="fill:none;"/>
                                                <g transform="matrix(0.401326,0.695116,-0.695116,0.401326,1157.72,164.143)">
                                                    <g>
                                                        <g transform="matrix(251.288,0,0,251.288,350,957)">
                                                            <path d="M0.419,0.016C0.345,0.016 0.278,0.001 0.219,-0.031C0.16,-0.062 0.113,-0.105 0.08,-0.161C0.046,-0.216 0.029,-0.279 0.029,-0.35C0.029,-0.421 0.046,-0.484 0.08,-0.54C0.113,-0.595 0.16,-0.639 0.219,-0.67C0.278,-0.7 0.345,-0.716 0.419,-0.716C0.487,-0.716 0.548,-0.704 0.601,-0.68C0.654,-0.656 0.698,-0.621 0.733,-0.576L0.584,-0.443C0.541,-0.498 0.49,-0.525 0.431,-0.525C0.382,-0.525 0.342,-0.509 0.312,-0.478C0.282,-0.446 0.267,-0.403 0.267,-0.35C0.267,-0.297 0.282,-0.254 0.312,-0.223C0.342,-0.191 0.382,-0.175 0.431,-0.175C0.49,-0.175 0.541,-0.202 0.584,-0.257L0.733,-0.124C0.698,-0.079 0.654,-0.044 0.601,-0.02C0.548,0.004 0.487,0.016 0.419,0.016Z" style="fill:rgb(255,152,0);fill-rule:nonzero;"/>
                                                        </g>
                                                        <g transform="matrix(251.288,0,0,251.288,534.446,957)">
                                                            <path d="M0.534,-0.122L0.268,-0.122L0.221,0L-0.019,0L0.287,-0.7L0.519,-0.7L0.825,0L0.581,0L0.534,-0.122ZM0.469,-0.292L0.401,-0.468L0.333,-0.292L0.469,-0.292Z" style="fill:rgb(255,152,0);fill-rule:nonzero;"/>
                                                        </g>
                                                        <g transform="matrix(251.288,0,0,251.288,736.984,957)">
                                                            <path d="M0.682,0L0.68,-0.319L0.528,-0.063L0.424,-0.063L0.272,-0.308L0.272,0L0.057,0L0.057,-0.7L0.251,-0.7L0.479,-0.327L0.701,-0.7L0.895,-0.7L0.897,0L0.682,0Z" style="fill:rgb(255,152,0);fill-rule:nonzero;"/>
                                                        </g>
                                                        <g transform="matrix(251.288,0,0,251.288,976.713,957)">
                                                            <path d="M0.394,-0.7C0.459,-0.7 0.515,-0.689 0.563,-0.668C0.611,-0.647 0.648,-0.616 0.674,-0.576C0.7,-0.536 0.713,-0.489 0.713,-0.436C0.713,-0.383 0.7,-0.336 0.674,-0.296C0.648,-0.256 0.611,-0.225 0.563,-0.204C0.515,-0.183 0.459,-0.172 0.394,-0.172L0.293,-0.172L0.293,0L0.057,0L0.057,-0.7L0.394,-0.7ZM0.379,-0.354C0.411,-0.354 0.435,-0.361 0.451,-0.376C0.467,-0.39 0.475,-0.41 0.475,-0.436C0.475,-0.462 0.467,-0.482 0.451,-0.497C0.435,-0.511 0.411,-0.518 0.379,-0.518L0.293,-0.518L0.293,-0.354L0.379,-0.354Z" style="fill:rgb(255,152,0);fill-rule:nonzero;"/>
                                                        </g>
                                                    </g>
                                                </g>
                                            </g>
                                            <g transform="matrix(0.802651,-5.55112e-17,5.55112e-17,0.802651,-1978.42,1000.4)">
                                                <g>
                                                    <g transform="matrix(251.288,0,0,251.288,350,957)">
                                                        <path d="M0.419,0.016C0.345,0.016 0.278,0.001 0.219,-0.031C0.16,-0.062 0.113,-0.105 0.08,-0.161C0.046,-0.216 0.029,-0.279 0.029,-0.35C0.029,-0.421 0.046,-0.484 0.08,-0.54C0.113,-0.595 0.16,-0.639 0.219,-0.67C0.278,-0.7 0.345,-0.716 0.419,-0.716C0.487,-0.716 0.548,-0.704 0.601,-0.68C0.654,-0.656 0.698,-0.621 0.733,-0.576L0.584,-0.443C0.541,-0.498 0.49,-0.525 0.431,-0.525C0.382,-0.525 0.342,-0.509 0.312,-0.478C0.282,-0.446 0.267,-0.403 0.267,-0.35C0.267,-0.297 0.282,-0.254 0.312,-0.223C0.342,-0.191 0.382,-0.175 0.431,-0.175C0.49,-0.175 0.541,-0.202 0.584,-0.257L0.733,-0.124C0.698,-0.079 0.654,-0.044 0.601,-0.02C0.548,0.004 0.487,0.016 0.419,0.016Z" style="fill:rgb(255,152,0);fill-rule:nonzero;"/>
                                                    </g>
                                                    <g transform="matrix(251.288,0,0,251.288,534.446,957)">
                                                        <path d="M0.534,-0.122L0.268,-0.122L0.221,0L-0.019,0L0.287,-0.7L0.519,-0.7L0.825,0L0.581,0L0.534,-0.122ZM0.469,-0.292L0.401,-0.468L0.333,-0.292L0.469,-0.292Z" style="fill:rgb(255,152,0);fill-rule:nonzero;"/>
                                                    </g>
                                                    <g transform="matrix(251.288,0,0,251.288,736.984,957)">
                                                        <path d="M0.682,0L0.68,-0.319L0.528,-0.063L0.424,-0.063L0.272,-0.308L0.272,0L0.057,0L0.057,-0.7L0.251,-0.7L0.479,-0.327L0.701,-0.7L0.895,-0.7L0.897,0L0.682,0Z" style="fill:rgb(255,152,0);fill-rule:nonzero;"/>
                                                    </g>
                                                    <g transform="matrix(251.288,0,0,251.288,976.713,957)">
                                                        <path d="M0.394,-0.7C0.459,-0.7 0.515,-0.689 0.563,-0.668C0.611,-0.647 0.648,-0.616 0.674,-0.576C0.7,-0.536 0.713,-0.489 0.713,-0.436C0.713,-0.383 0.7,-0.336 0.674,-0.296C0.648,-0.256 0.611,-0.225 0.563,-0.204C0.515,-0.183 0.459,-0.172 0.394,-0.172L0.293,-0.172L0.293,0L0.057,0L0.057,-0.7L0.394,-0.7ZM0.379,-0.354C0.411,-0.354 0.435,-0.361 0.451,-0.376C0.467,-0.39 0.475,-0.41 0.475,-0.436C0.475,-0.462 0.467,-0.482 0.451,-0.497C0.435,-0.511 0.411,-0.518 0.379,-0.518L0.293,-0.518L0.293,-0.354L0.379,-0.354Z" style="fill:rgb(255,152,0);fill-rule:nonzero;"/>
                                                    </g>
                                                </g>
                                            </g>
                                        </g>
                                    </g>
                                </g>
                            </g>
                        </g>
                    </g>
                </g>
            </g>
        </g>
    </g>
</svg>
