<?xml version="1.0" encoding="UTF-8" standalone="no"?>
<!DOCTYPE svg PUBLIC "-//W3C//DTD SVG 1.1//EN" "http://www.w3.org/Graphics/SVG/1.1/DTD/svg11.dtd">
<svg width="100%" height="100%" viewBox="0 0 352 240" version="1.1" xmlns="http://www.w3.org/2000/svg" xmlns:xlink="http://www.w3.org/1999/xlink" xml:space="preserve" xmlns:serif="http://www.serif.com/" style="fill-rule:evenodd;clip-rule:evenodd;stroke-linejoin:round;stroke-miterlimit:2;">
    <g transform="matrix(1,0,0,1,-8418.53,-245.442)">
        <g transform="matrix(1,0,0,1,4405,0)">
            <g transform="matrix(1,0,0,1,-720.622,0)">
                <g transform="matrix(-0.368887,1.3767,3.07851,0.824884,5925.07,-8771.73)">
                    <path d="M6463,434.5C6463,430.913 6456.49,428 6448.47,428L6304.53,428C6296.51,428 6290,430.913 6290,434.5C6290,438.087 6296.51,441 6304.53,441L6448.47,441C6456.49,441 6463,438.087 6463,434.5Z" style="fill:rgb(76,175,80);"/>
                </g>
                <g>
                    <g transform="matrix(0.559278,-0.559278,2.25362,2.25362,243.162,2920.05)">
                        <path d="M6463,434.5C6463,430.913 6451.26,428 6436.81,428L6316.19,428C6301.74,428 6290,430.913 6290,434.5C6290,438.087 6301.74,441 6316.19,441L6436.81,441C6451.26,441 6463,438.087 6463,434.5Z" style="fill:rgb(76,175,80);"/>
                    </g>
                    <g transform="matrix(0.559278,0.559278,-2.25362,2.25362,2201.56,-4144.67)">
                        <path d="M6463,434.5C6463,430.913 6451.26,428 6436.81,428L6316.19,428C6301.74,428 6290,430.913 6290,434.5C6290,438.087 6301.74,441 6316.19,441L6436.81,441C6451.26,441 6463,438.087 6463,434.5Z" style="fill:rgb(76,175,80);"/>
                    </g>
                </g>
                <g transform="matrix(-1,0,0,1,9820.19,0)">
                    <g transform="matrix(0.559278,-0.559278,2.25362,2.25362,243.162,2920.05)">
                        <path d="M6463,434.5C6463,430.913 6451.26,428 6436.81,428L6316.19,428C6301.74,428 6290,430.913 6290,434.5C6290,438.087 6301.74,441 6316.19,441L6436.81,441C6451.26,441 6463,438.087 6463,434.5Z" style="fill:rgb(76,175,80);"/>
                    </g>
                    <g transform="matrix(0.559278,0.559278,-2.25362,2.25362,2201.56,-4144.67)">
                        <path d="M6463,434.5C6463,430.913 6451.26,428 6436.81,428L6316.19,428C6301.74,428 6290,430.913 6290,434.5C6290,438.087 6301.74,441 6316.19,441L6436.81,441C6451.26,441 6463,438.087 6463,434.5Z" style="fill:rgb(76,175,80);"/>
                    </g>
                </g>
            </g>
        </g>
    </g>
</svg>
