<?xml version="1.0" encoding="UTF-8" standalone="no"?>
<!DOCTYPE svg PUBLIC "-//W3C//DTD SVG 1.1//EN" "http://www.w3.org/Graphics/SVG/1.1/DTD/svg11.dtd">
<svg width="100%" height="100%" viewBox="0 0 276 362" version="1.1" xmlns="http://www.w3.org/2000/svg" xmlns:xlink="http://www.w3.org/1999/xlink" xml:space="preserve" xmlns:serif="http://www.serif.com/" style="fill-rule:evenodd;clip-rule:evenodd;stroke-linejoin:round;stroke-miterlimit:2;">
    <g transform="matrix(1,0,0,1,-4027.11,-2446)">
        <g transform="matrix(1,0,0,1,7,2297)">
            <g transform="matrix(1,0,0,1,-756,0)">
                <g transform="matrix(1,0,0,1,-6649,0)">
                    <path d="M11700,256C11696.6,250.529 11683.1,235.574 11678,232C11659.2,218.696 11631.7,220.877 11615,236C11609,241.453 11595,254.632 11595,264C11595,272.577 11608.4,283.442 11616,276C11626,266.188 11634.1,246.124 11650,244C11669,241.47 11683.7,253.027 11700,260C11701.2,260.523 11700.7,257.137 11700,256Z" style="fill:rgb(255,87,34);"/>
                </g>
                <g transform="matrix(1,0,0,1,-6649,0)">
                    <path d="M11685,293C11684.2,292.489 11667,281.429 11661,280C11648,276.879 11634.7,276.579 11623,284C11619,286.543 11615.5,289.813 11612,293C11615.7,296.294 11619.6,299.641 11624,302C11644.6,313.056 11668.2,307.984 11685,293" style="fill:rgb(255,87,34);"/>
                </g>
                <g transform="matrix(1,0,0,1,-6649,0)">
                    <path d="M11480,149C11466.6,154.734 11453.1,160.607 11440,167C11421.1,176.188 11425.3,198.991 11426,216C11427.2,245.022 11429.3,274.004 11431,303C11431.9,318.671 11432.4,334.379 11434,350C11435.1,360.607 11444.8,385.665 11447,391C11461.3,425.64 11481.2,459.408 11511,483C11527.1,495.749 11545.7,504.342 11565,511C11564.7,491 11564.4,471 11564.2,451C11559,450.014 11552.9,448.788 11548,447C11535.7,442.523 11526.1,433.319 11518.5,423L11563,423C11568.7,417.667 11574.3,412.333 11580,407C11585.3,412.333 11590.7,417.667 11596,423L11658,423C11671.7,400.667 11685.3,378.333 11699,356L11699,350C11681.7,367 11664.3,384 11647,401L11615,401C11606.3,390 11597.7,379 11589,368L11570,368C11561.3,379 11552.7,390 11544,401L11511,401C11495.7,385.663 11480.6,370.014 11466,354C11463.7,351.469 11460.7,342.382 11460.6,339.883C11460.2,333.578 11462.9,324.783 11465,319C11469.1,308.041 11470.8,304.917 11477,295C11484.4,299.697 11491.3,303.984 11500,306C11517.1,309.964 11535.2,304.998 11548,293C11538.3,284.399 11526.1,278.661 11513,278C11507.9,277.742 11501.9,278.924 11497,280C11493.9,277.821 11489.7,274.513 11488,271C11484.2,263.307 11483.8,249.723 11492.8,245.257C11496.5,243.444 11502.5,243.358 11506,244C11516.8,245.979 11524.7,253.545 11531,262C11535.6,268.181 11534.3,270.45 11541,276C11546.9,280.895 11558.2,278.178 11562,272C11564.3,268.302 11564.3,264.133 11564,260C11551.1,236.156 11529.3,219.833 11501,224C11490.8,225.504 11480.7,233.028 11473,239C11475.7,209 11478.3,179 11481,149" style="fill:rgb(255,87,34);"/>
                </g>
            </g>
        </g>
    </g>
</svg>
