<?xml version="1.0" encoding="UTF-8" standalone="no"?>
<!DOCTYPE svg PUBLIC "-//W3C//DTD SVG 1.1//EN" "http://www.w3.org/Graphics/SVG/1.1/DTD/svg11.dtd">
<svg width="100%" height="100%" viewBox="0 0 483 321" version="1.1" xmlns="http://www.w3.org/2000/svg" xmlns:xlink="http://www.w3.org/1999/xlink" xml:space="preserve" xmlns:serif="http://www.serif.com/" style="fill-rule:evenodd;clip-rule:evenodd;stroke-linecap:square;stroke-linejoin:round;stroke-miterlimit:1.5;">
    <g transform="matrix(1,0,0,1,-6242,-145.5)">
        <g transform="matrix(1,0,0,1,2233,0)">
            <g transform="matrix(1.30854,0,0,1.30854,-1258.68,-219.081)">
                <g transform="matrix(1,0,0,1,-2231,1)">
                    <path d="M6370,349C6391.53,349 6409,366.475 6409,388C6409,409.525 6391.53,427 6370,427C6348.48,427 6331,409.525 6331,388C6331,366.475 6348.48,349 6370,349ZM6370,368.5C6380.76,368.5 6389.5,377.238 6389.5,388C6389.5,398.762 6380.76,407.5 6370,407.5C6359.24,407.5 6350.5,398.762 6350.5,388C6350.5,377.238 6359.24,368.5 6370,368.5Z" style="fill:rgb(33,150,243);stroke:rgb(33,150,243);stroke-width:0.76px;"/>
                </g>
                <g transform="matrix(1,0,0,1,-2120.87,54)">
                    <path d="M6370,349C6391.53,349 6409,366.475 6409,388C6409,409.525 6391.53,427 6370,427C6348.48,427 6331,409.525 6331,388C6331,366.475 6348.48,349 6370,349ZM6370,368.5C6380.76,368.5 6389.5,377.238 6389.5,388C6389.5,398.762 6380.76,407.5 6370,407.5C6359.24,407.5 6350.5,398.762 6350.5,388C6350.5,377.238 6359.24,368.5 6370,368.5Z" style="fill:rgb(33,150,243);stroke:rgb(33,150,243);stroke-width:0.76px;"/>
                </g>
                <g transform="matrix(1,0,0,1,-2014.87,-70)">
                    <path d="M6370,349C6391.53,349 6409,366.475 6409,388C6409,409.525 6391.53,427 6370,427C6348.48,427 6331,409.525 6331,388C6331,366.475 6348.48,349 6370,349ZM6370,368.5C6380.76,368.5 6389.5,377.238 6389.5,388C6389.5,398.762 6380.76,407.5 6370,407.5C6359.24,407.5 6350.5,398.762 6350.5,388C6350.5,377.238 6359.24,368.5 6370,368.5Z" style="fill:rgb(33,150,243);stroke:rgb(33,150,243);stroke-width:0.76px;"/>
                </g>
                <g transform="matrix(0.518309,-0.687819,1.41402,1.06554,156.036,4383.97)">
                    <path d="M6463,434.5C6463,430.913 6457.01,428 6449.64,428L6303.36,428C6295.99,428 6290,430.913 6290,434.5C6290,438.087 6295.99,441 6303.36,441L6449.64,441C6457.01,441 6463,438.087 6463,434.5Z" style="fill:rgb(33,150,243);stroke:rgb(33,150,243);stroke-width:0.55px;stroke-linecap:round;"/>
                </g>
                <g transform="matrix(0.389632,-0.583565,1.47601,0.985495,1181.65,3675.95)">
                    <path d="M6463,434.5C6463,430.913 6455.63,428 6446.56,428L6306.44,428C6297.37,428 6290,430.913 6290,434.5C6290,438.087 6297.37,441 6306.44,441L6446.56,441C6455.63,441 6463,438.087 6463,434.5Z" style="fill:rgb(33,150,243);stroke:rgb(33,150,243);stroke-width:0.57px;stroke-linecap:round;"/>
                </g>
                <g transform="matrix(0.374116,0.278895,-1.06074,1.4229,2269.22,-1978.75)">
                    <path d="M6463,434.5C6463,430.913 6451.92,428 6438.28,428L6314.72,428C6301.08,428 6290,430.913 6290,434.5C6290,438.087 6301.08,441 6314.72,441L6438.28,441C6451.92,441 6463,438.087 6463,434.5Z" style="fill:rgb(33,150,243);stroke:rgb(33,150,243);stroke-width:0.59px;stroke-linecap:round;"/>
                </g>
            </g>
        </g>
    </g>
</svg>
