<?xml version="1.0" encoding="UTF-8" standalone="no"?>
<!DOCTYPE svg PUBLIC "-//W3C//DTD SVG 1.1//EN" "http://www.w3.org/Graphics/SVG/1.1/DTD/svg11.dtd">
<svg width="100%" height="100%" viewBox="0 0 560 334" version="1.1" xmlns="http://www.w3.org/2000/svg" xmlns:xlink="http://www.w3.org/1999/xlink" xml:space="preserve" xmlns:serif="http://www.serif.com/" style="fill-rule:evenodd;clip-rule:evenodd;stroke-linejoin:round;stroke-miterlimit:2;">
    <g transform="matrix(1,0,0,1,-6269.53,-2487.03)">
        <g transform="matrix(1,0,0,1,2256,2297)">
            <g transform="matrix(1.52267,0,0,1.52267,-16661.6,-174.743)">
                <path d="M13680.5,388.97L13671.4,422.958C13664.6,448.231 13638.6,463.252 13613.3,456.48C13588.1,449.708 13573.1,423.691 13579.8,398.418L13613,274.707C13619.7,249.434 13645.8,234.413 13671,241.185C13678.7,243.227 13685.3,247.02 13690.8,252.018L13833.4,252.018C13838.8,247.233 13845.3,243.596 13852.7,241.612C13878,234.84 13904,249.861 13910.8,275.134L13943.9,398.845C13950.7,424.119 13935.7,450.135 13910.4,456.907C13885.1,463.679 13859.1,448.659 13852.3,423.385L13843,388.604C13839.9,389.347 13836.7,389.74 13833.4,389.74C13818.1,389.74 13804.8,381.302 13797.8,368.832L13724,368.832C13717,381.302 13703.7,389.74 13688.4,389.74C13685.7,389.74 13683.1,389.476 13680.5,388.97ZM13688,336C13696.3,336 13703,342.721 13703,351C13703,359.279 13696.3,366 13688,366C13679.7,366 13673,359.279 13673,351C13673,342.721 13679.7,336 13688,336ZM13832.6,336C13840.8,336 13847.6,342.721 13847.6,351C13847.6,359.279 13840.8,366 13832.6,366C13824.3,366 13817.6,359.279 13817.6,351C13817.6,342.721 13824.3,336 13832.6,336ZM13672,278C13672,277.373 13671.9,276.752 13671.7,276.167C13671.1,274.791 13670,273.701 13668.5,273.244C13668,273.082 13667.5,273 13667,273C13663.7,273 13660.3,273 13657,273C13656.5,273 13656,273.082 13655.5,273.244C13655,273.4 13654.5,273.63 13654.1,273.923C13653.3,274.53 13652.6,275.404 13652.3,276.397C13652.1,276.914 13652,277.455 13652,278L13652,295L13635,295C13632.2,295 13630,297.24 13630,300L13630,310C13630,312.76 13632.2,315 13635,315L13652,315L13652,332C13652,332.627 13652.1,333.248 13652.3,333.833C13652.9,335.209 13654,336.299 13655.5,336.756C13656,336.918 13656.5,337 13657,337C13660.3,337 13663.7,337 13667,337C13667.5,337 13668,336.918 13668.5,336.756C13669,336.6 13669.5,336.37 13669.9,336.077C13670.7,335.47 13671.4,334.596 13671.7,333.603C13671.9,333.086 13672,332.545 13672,332L13672,315L13689,315C13691.8,315 13694,312.76 13694,310L13694,300C13694,297.24 13691.8,295 13689,295L13672,295L13672,278ZM13745.5,315C13743,315 13741,317.016 13741,319.5L13741,328.5C13741,330.984 13743,333 13745.5,333L13778.5,333C13781,333 13783,330.984 13783,328.5L13783,319.5C13783,317.016 13781,315 13778.5,315L13745.5,315ZM13861,307C13866.5,307 13871,311.481 13871,317C13871,322.519 13866.5,327 13861,327C13855.5,327 13851,322.519 13851,317C13851,311.481 13855.5,307 13861,307ZM13879,288C13884.5,288 13889,292.481 13889,298C13889,303.519 13884.5,308 13879,308C13873.5,308 13869,303.519 13869,298C13869,292.481 13873.5,288 13879,288ZM13844,288C13849.5,288 13854,292.481 13854,298C13854,303.519 13849.5,308 13844,308C13838.5,308 13834,303.519 13834,298C13834,292.481 13838.5,288 13844,288ZM13745.5,287C13743,287 13741,289.016 13741,291.5L13741,300.5C13741,302.984 13743,305 13745.5,305L13778.5,305C13781,305 13783,302.984 13783,300.5L13783,291.5C13783,289.016 13781,287 13778.5,287L13745.5,287ZM13861,270C13866.5,270 13871,274.481 13871,280C13871,285.519 13866.5,290 13861,290C13855.5,290 13851,285.519 13851,280C13851,274.481 13855.5,270 13861,270Z" style="fill:rgb(233,30,99);"/>
            </g>
        </g>
    </g>
</svg>
