<?xml version="1.0" encoding="UTF-8" standalone="no"?>
<!DOCTYPE svg PUBLIC "-//W3C//DTD SVG 1.1//EN" "http://www.w3.org/Graphics/SVG/1.1/DTD/svg11.dtd">
<svg width="100%" height="100%" viewBox="0 0 408 434" version="1.1" xmlns="http://www.w3.org/2000/svg" xmlns:xlink="http://www.w3.org/1999/xlink" xml:space="preserve" xmlns:serif="http://www.serif.com/" style="fill-rule:evenodd;clip-rule:evenodd;stroke-linecap:round;stroke-linejoin:round;stroke-miterlimit:1.5;">
    <g transform="matrix(1,0,0,1,-8452.47,-2457.49)">
        <g transform="matrix(1,0,0,1,4443,2297)">
            <g transform="matrix(1.19129,0,0,1.19129,-1802.99,-160.662)">
                <g transform="matrix(1,0,0,1,-11193,0)">
                    <circle cx="16109" cy="455" r="8" style="fill:rgb(63,81,181);stroke:rgb(63,81,181);stroke-width:0.84px;"/>
                </g>
                <g>
                    <g transform="matrix(1,0,0,1,-11193,0)">
                        <path d="M16292,627L16292,605" style="fill:none;stroke:rgb(63,81,181);stroke-width:10.49px;"/>
                    </g>
                    <g transform="matrix(1,0,0,1,-11193,0)">
                        <path d="M16292,605C16282.3,590 16272.7,575 16263,560" style="fill:none;stroke:rgb(63,81,181);stroke-width:10.49px;"/>
                    </g>
                    <g transform="matrix(1,0,0,1,-11193,0)">
                        <path d="M16263,560L16263,512" style="fill:none;stroke:rgb(63,81,181);stroke-width:10.49px;"/>
                    </g>
                    <g transform="matrix(1.38889,0,0,1.38889,-17517.5,-199.111)">
                        <path d="M16263,512C16269,505.333 16275,498.667 16281,492" style="fill:none;stroke:rgb(63,81,181);stroke-width:7.55px;"/>
                    </g>
                    <g transform="matrix(1,0,0,1,-11192,1)">
                        <path d="M16287,529.606L16287,398" style="fill:none;stroke:rgb(63,81,181);stroke-width:10.49px;"/>
                    </g>
                    <g transform="matrix(0.802441,0,0,0.802441,-7944.36,79.6285)">
                        <path d="M16287,529.606L16287,398" style="fill:none;stroke:rgb(63,81,181);stroke-width:13.08px;"/>
                    </g>
                    <g transform="matrix(0.302441,0,0,0.302441,230.144,344.432)">
                        <path d="M16287,529.606L16287,398" style="fill:none;stroke:rgb(63,81,181);stroke-width:34.69px;"/>
                    </g>
                    <g transform="matrix(0.180866,0,0,0.180866,2240.23,408.818)">
                        <path d="M16287,529.606L16287,398" style="fill:none;stroke:rgb(63,81,181);stroke-width:58.01px;"/>
                    </g>
                    <g transform="matrix(0.431614,0,0,0.431614,-1813.7,320.922)">
                        <path d="M16287,529.606L16287,398" style="fill:none;stroke:rgb(63,81,181);stroke-width:24.31px;"/>
                    </g>
                    <g transform="matrix(1,0,0,1,-11193,0)">
                        <path d="M16409,549.508C16401.3,566.005 16393.7,582.503 16386,599" style="fill:none;stroke:rgb(63,81,181);stroke-width:10.49px;"/>
                    </g>
                    <g transform="matrix(1,0,0,1,-11193,0)">
                        <path d="M16386,599L16386,628" style="fill:none;stroke:rgb(63,81,181);stroke-width:10.49px;"/>
                    </g>
                    <g transform="matrix(1,0,0,1,-11193,0)">
                        <path d="M16318,399C16317.2,396.342 16316,393.408 16314,391.344C16309.4,386.695 16301.6,385.997 16296,389C16292.3,390.952 16289.8,395.611 16288,399" style="fill:none;stroke:rgb(63,81,181);stroke-width:10.49px;"/>
                    </g>
                    <g transform="matrix(1,0,0,1,-11163,65.8031)">
                        <path d="M16319,399C16318.2,396.342 16316,393.408 16314,391.344C16309.4,386.695 16301.6,385.997 16296,389C16292.3,390.952 16289.8,395.611 16288,399" style="fill:none;stroke:rgb(63,81,181);stroke-width:10.49px;"/>
                    </g>
                    <g transform="matrix(1,0,0,1,-11133,79.8031)">
                        <path d="M16319,399C16318.2,396.342 16316,393.408 16314,391.344C16309.4,386.695 16301.6,385.997 16296,389C16292.3,390.952 16290.8,395.611 16289,399" style="fill:none;stroke:rgb(63,81,181);stroke-width:10.49px;"/>
                    </g>
                    <g transform="matrix(1,0,0,1,-11102,90.8031)">
                        <path d="M16318,400C16317.2,397.342 16316,393.408 16314,391.344C16309.4,386.695 16301.6,385.997 16296,389C16292.3,390.952 16290.8,395.611 16289,399" style="fill:none;stroke:rgb(63,81,181);stroke-width:10.49px;"/>
                    </g>
                </g>
                <g transform="matrix(1,0,0,1,-11193,0)">
                    <path d="M16335.2,270C16335.5,270 16335.8,270.009 16336,270.027L16336,270C16352,270 16365,282.469 16365.9,298.2C16366,298.545 16366,298.895 16366,299.25L16366,422.75C16366,428.407 16361.4,433 16355.8,433C16350.1,433 16345.5,428.407 16345.5,422.75L16345.5,299.25C16345.5,299.095 16345.5,298.941 16345.5,298.787C16344.9,294.224 16341.1,290.66 16336.5,290.426C16336.1,290.475 16335.7,290.5 16335.2,290.5L16156.2,290.5C16155.8,290.5 16155.4,290.475 16155,290.426C16150.2,290.667 16146.3,294.44 16145.9,299.199C16146,299.545 16146,299.895 16146,300.25L16146,545.75C16146,546.105 16146,546.455 16145.9,546.801C16146.3,551.292 16149.8,554.905 16154.2,555.5L16154.2,555.5L16232.8,555.5C16238.4,555.5 16243,560.093 16243,565.75C16243,571.407 16238.4,576 16232.8,576L16154.2,576C16153.7,575.998 16153.1,575.952 16152.6,575.862L16152.5,575.853C16137.3,574.352 16125.5,561.56 16125.5,546L16125.5,546C16125.5,545.917 16125.5,545.834 16125.5,545.75L16125.5,300.25C16125.5,300.166 16125.5,300.083 16125.5,300L16125.5,300C16125.5,283.431 16138.9,270 16155.5,270L16155.5,270.027C16155.7,270.009 16156,270 16156.2,270L16335.2,270Z" style="fill:rgb(63,81,181);stroke:rgb(63,81,181);stroke-width:0.84px;"/>
                </g>
                <g transform="matrix(0.875,0,0,0.833333,-9175.13,77.9167)">
                    <path d="M16215,417.676C16215,413.991 16212.2,411 16208.6,411L16077.4,411C16073.8,411 16071,413.991 16071,417.676L16071,517.324C16071,521.009 16073.8,524 16077.4,524L16208.6,524C16212.2,524 16215,521.009 16215,517.324L16215,417.676Z" style="fill:none;stroke:rgb(63,81,181);stroke-width:18.42px;"/>
                </g>
                <g transform="matrix(1,0,0,2,-11193,-357)">
                    <path d="M16287,361C16287,358.792 16283.4,357 16279,357L16143,357C16138.6,357 16135,358.792 16135,361C16135,363.208 16138.6,365 16143,365L16279,365C16283.4,365 16287,363.208 16287,361Z" style="fill:rgb(63,81,181);"/>
                </g>
                <g transform="matrix(0.546053,0,0,2,-3799.56,-395)">
                    <path d="M16287,361C16287,358.792 16280.4,357 16272.3,357L16149.7,357C16141.6,357 16135,358.792 16135,361C16135,363.208 16141.6,365 16149.7,365L16272.3,365C16280.4,365 16287,363.208 16287,361Z" style="fill:rgb(63,81,181);"/>
                </g>
                <g transform="matrix(0.388158,0,0,2,-1330.43,-267)">
                    <path d="M16287,361C16287,358.792 16277.8,357 16266.4,357L16155.6,357C16144.2,357 16135,358.792 16135,361C16135,363.208 16144.2,365 16155.6,365L16266.4,365C16277.8,365 16287,363.208 16287,361Z" style="fill:rgb(63,81,181);stroke:rgb(63,81,181);stroke-width:0.58px;"/>
                </g>
            </g>
        </g>
    </g>
</svg>
